<svg version="1.1" id="Layer_1" xmlns="http://www.w3.org/2000/svg" xmlns:xlink="http://www.w3.org/1999/xlink" x="0px" y="0px"
	 width="100%" viewBox="0 0 429 349" enable-background="new 0 0 429 349" xml:space="preserve">
<path fill="#FEFEFF" opacity="1.000000" stroke="none" 
	d="
M307.000000,350.000000 
	C204.666687,350.000000 102.833366,350.000000 1.000041,350.000000 
	C1.000027,233.666702 1.000027,117.333412 1.000014,1.000088 
	C143.999939,1.000059 286.999878,1.000059 429.999878,1.000029 
	C429.999908,117.333252 429.999908,233.666504 429.999939,349.999878 
	C389.166656,350.000000 348.333344,350.000000 307.000000,350.000000 
M241.135880,176.684814 
	C260.082703,166.371201 278.724976,155.439270 298.061157,145.916229 
	C317.773895,136.207718 338.848541,130.813354 361.079651,130.993546 
	C374.191101,131.099823 385.484100,135.507568 394.547791,145.112167 
	C395.834930,146.476120 396.646851,148.288544 397.678741,149.893402 
	C398.161163,149.433273 398.643585,148.973129 399.126007,148.513000 
	C399.126007,146.703629 399.456604,144.820847 399.073730,143.096497 
	C396.008423,129.291611 389.677094,117.258415 377.221161,109.969872 
	C352.716797,95.631233 326.321655,94.836990 299.439972,101.269493 
	C274.008911,107.354889 250.891861,119.107620 228.410660,132.054489 
	C202.287659,147.098679 177.425049,164.068283 153.776657,182.776138 
	C146.756866,188.329361 146.056931,193.051849 150.468277,200.996185 
	C153.370163,206.222183 156.220306,211.477158 159.152725,216.685898 
	C163.641602,224.659317 170.498840,225.931015 177.935013,220.684784 
	C198.715225,206.024384 219.614395,191.532593 241.135880,176.684814 
M164.492203,290.073090 
	C142.781906,292.990173 121.067207,291.264801 99.351746,288.734558 
	C99.089417,289.584473 98.827087,290.434387 98.564758,291.284302 
	C104.859451,295.361084 110.914825,299.880219 117.490364,303.437927 
	C145.540497,318.614624 175.734024,322.444611 206.955826,318.725189 
	C241.459549,314.614838 273.752502,303.279053 304.358521,286.995300 
	C311.803650,283.034180 313.696136,275.520752 308.938232,268.499969 
	C305.115021,262.858398 301.063416,257.371826 297.123932,251.808884 
	C291.514740,243.888168 285.493591,242.903595 277.009338,247.703735 
	C263.018097,255.619553 249.118240,263.797791 234.626709,270.704895 
	C212.756882,281.128693 189.485764,287.205170 164.492203,290.073090 
M59.330742,210.992264 
	C62.418102,203.470520 65.127197,195.765442 68.666679,188.462830 
	C77.785255,169.649506 89.461601,152.513306 103.564606,137.040421 
	C108.644035,131.467606 109.211174,124.817253 104.879173,119.960770 
	C101.447594,116.113747 97.764740,112.447502 93.882996,109.056351 
	C88.978897,104.772041 82.066406,104.778702 77.521942,109.330093 
	C63.083256,123.790787 50.694965,139.872330 42.187305,158.523148 
	C29.128139,187.151993 26.138838,217.317017 30.074024,248.298920 
	C34.679379,284.557098 60.894753,312.247864 96.874969,318.983185 
	C98.476845,319.283020 100.183800,319.021545 101.841797,319.021545 
	C101.969826,318.622131 102.097855,318.222687 102.225876,317.823273 
	C100.649628,316.807373 99.125397,315.697693 97.489174,314.789917 
	C78.000694,303.977661 63.185875,289.079468 56.653557,267.237518 
	C51.057163,248.524933 53.394062,230.038574 59.330742,210.992264 
M234.093231,60.690380 
	C250.208954,56.800552 266.310638,52.850914 282.450836,49.065376 
	C286.215088,48.182495 289.527740,46.278679 289.661560,42.582539 
	C289.765289,39.716934 288.158722,36.244076 286.216309,33.982624 
	C283.565674,30.896643 279.762421,28.832272 276.648285,26.107117 
	C265.751678,16.571644 253.501663,14.610227 239.908966,19.048210 
	C210.374039,28.691296 181.738586,40.453926 154.281830,55.035870 
	C147.178284,58.808483 146.211258,64.053513 151.826065,69.765244 
	C156.024017,74.035660 160.429138,78.103050 164.760590,82.241425 
	C168.192795,85.520660 171.828171,85.559563 176.193695,83.772919 
	C195.174210,76.004913 214.267685,68.512894 234.093231,60.690380 
M352.409851,167.894165 
	C343.024750,179.945374 333.654358,192.008087 324.246552,204.041534 
	C320.986938,208.210846 320.778595,211.572449 324.222656,215.095947 
	C332.248444,223.306915 340.378510,231.418198 348.575836,239.458160 
	C351.825226,242.645142 355.074036,242.513489 358.021790,239.034073 
	C368.896088,226.198685 378.765350,212.677841 386.411896,197.598679 
	C388.434174,193.610611 388.136322,190.397430 385.415710,187.070129 
	C378.996338,179.219315 372.682892,171.281555 366.231018,163.457779 
	C362.268524,158.652679 358.736816,158.873825 355.024536,163.981033 
	C354.245087,165.053299 353.569214,166.200836 352.409851,167.894165 
z"/>
<path fill="#0C418B" opacity="1.000000" stroke="none" 
	d="
M240.801239,176.829529 
	C219.614395,191.532593 198.715225,206.024384 177.935013,220.684784 
	C170.498840,225.931015 163.641602,224.659317 159.152725,216.685898 
	C156.220306,211.477158 153.370163,206.222183 150.468277,200.996185 
	C146.056931,193.051849 146.756866,188.329361 153.776657,182.776138 
	C177.425049,164.068283 202.287659,147.098679 228.410660,132.054489 
	C250.891861,119.107620 274.008911,107.354889 299.439972,101.269493 
	C326.321655,94.836990 352.716797,95.631233 377.221161,109.969872 
	C389.677094,117.258415 396.008423,129.291611 399.073730,143.096497 
	C399.456604,144.820847 399.126007,146.703629 399.126007,148.513000 
	C398.643585,148.973129 398.161163,149.433273 397.678741,149.893402 
	C396.646851,148.288544 395.834930,146.476120 394.547791,145.112167 
	C385.484100,135.507568 374.191101,131.099823 361.079651,130.993546 
	C338.848541,130.813354 317.773895,136.207718 298.061157,145.916229 
	C278.724976,155.439270 260.082703,166.371201 240.801239,176.829529 
z"/>
<path fill="#E31E23" opacity="1.000000" stroke="none" 
	d="
M164.943375,290.039856 
	C189.485764,287.205170 212.756882,281.128693 234.626709,270.704895 
	C249.118240,263.797791 263.018097,255.619553 277.009338,247.703735 
	C285.493591,242.903595 291.514740,243.888168 297.123932,251.808884 
	C301.063416,257.371826 305.115021,262.858398 308.938232,268.499969 
	C313.696136,275.520752 311.803650,283.034180 304.358521,286.995300 
	C273.752502,303.279053 241.459549,314.614838 206.955826,318.725189 
	C175.734024,322.444611 145.540497,318.614624 117.490364,303.437927 
	C110.914825,299.880219 104.859451,295.361084 98.564758,291.284302 
	C98.827087,290.434387 99.089417,289.584473 99.351746,288.734558 
	C121.067207,291.264801 142.781906,292.990173 164.943375,290.039856 
z"/>
<path fill="#0D418C" opacity="1.000000" stroke="none" 
	d="
M59.217972,211.376984 
	C53.394062,230.038574 51.057163,248.524933 56.653557,267.237518 
	C63.185875,289.079468 78.000694,303.977661 97.489174,314.789917 
	C99.125397,315.697693 100.649628,316.807373 102.225876,317.823273 
	C102.097855,318.222687 101.969826,318.622131 101.841797,319.021545 
	C100.183800,319.021545 98.476845,319.283020 96.874969,318.983185 
	C60.894753,312.247864 34.679379,284.557098 30.074024,248.298920 
	C26.138838,217.317017 29.128139,187.151993 42.187305,158.523148 
	C50.694965,139.872330 63.083256,123.790787 77.521942,109.330093 
	C82.066406,104.778702 88.978897,104.772041 93.882996,109.056351 
	C97.764740,112.447502 101.447594,116.113747 104.879173,119.960770 
	C109.211174,124.817253 108.644035,131.467606 103.564606,137.040421 
	C89.461601,152.513306 77.785255,169.649506 68.666679,188.462830 
	C65.127197,195.765442 62.418102,203.470520 59.217972,211.376984 
z"/>
<path fill="#0C418B" opacity="1.000000" stroke="none" 
	d="
M233.706665,60.805489 
	C214.267685,68.512894 195.174210,76.004913 176.193695,83.772919 
	C171.828171,85.559563 168.192795,85.520660 164.760590,82.241425 
	C160.429138,78.103050 156.024017,74.035660 151.826065,69.765244 
	C146.211258,64.053513 147.178284,58.808483 154.281830,55.035870 
	C181.738586,40.453926 210.374039,28.691296 239.908966,19.048210 
	C253.501663,14.610227 265.751678,16.571644 276.648285,26.107117 
	C279.762421,28.832272 283.565674,30.896643 286.216309,33.982624 
	C288.158722,36.244076 289.765289,39.716934 289.661560,42.582539 
	C289.527740,46.278679 286.215088,48.182495 282.450836,49.065376 
	C266.310638,52.850914 250.208954,56.800552 233.706665,60.805489 
z"/>
<path fill="#26AADD" opacity="1.000000" stroke="none" 
	d="
M352.627747,167.603928 
	C353.569214,166.200836 354.245087,165.053299 355.024536,163.981033 
	C358.736816,158.873825 362.268524,158.652679 366.231018,163.457779 
	C372.682892,171.281555 378.996338,179.219315 385.415710,187.070129 
	C388.136322,190.397430 388.434174,193.610611 386.411896,197.598679 
	C378.765350,212.677841 368.896088,226.198685 358.021790,239.034073 
	C355.074036,242.513489 351.825226,242.645142 348.575836,239.458160 
	C340.378510,231.418198 332.248444,223.306915 324.222656,215.095947 
	C320.778595,211.572449 320.986938,208.210846 324.246552,204.041534 
	C333.654358,192.008087 343.024750,179.945374 352.627747,167.603928 
z"/>
</svg>